<mxfile host="app.diagrams.net" modified="2023-12-10T11:53:27.201Z" agent="Mozilla/5.0 (Windows NT 10.0; Win64; x64) AppleWebKit/537.36 (KHTML, like Gecko) Chrome/120.0.0.0 Safari/537.36 Edg/120.0.0.0" version="22.1.7" etag="KR8bSf_vuYTKjcUzEAdS" type="github">
  <diagram name="Страница — 1" id="bpZOJAuhGt45y9ikJz2x">
    <mxGraphModel>
      <root>
        <mxCell id="0" />
        <mxCell id="1" parent="0" />
      </root>
    </mxGraphModel>
  </diagram>
</mxfile>
